<svg width="96" height="70" viewBox="0 0 96 70" fill="none" xmlns="http://www.w3.org/2000/svg">
<path d="M54.1785 5.47156C40.2381 5.58104 28.9738 10.5073 29.0165 16.4428C29.0495 20.0058 33.1232 23.1235 39.3871 25.0116C44.2564 26.4145 49.3085 27.0795 54.375 26.9843C57.0667 26.9666 59.7534 26.7516 62.4137 26.341L62.4887 26.7609C65.7548 45.9027 66.0128 64.7446 61.3325 68.0648L61.3452 68.1045C59.1744 68.5549 56.9639 68.7855 54.7469 68.7928C52.0086 68.8254 49.2765 68.5265 46.61 67.9028C33.666 64.9208 23.9838 54.6972 23.2385 42.3074C20.8953 44.0089 18.0826 44.9432 15.187 44.9819C11.5054 45.0131 7.9622 43.5806 5.33682 40.9993C2.71145 38.4181 1.21898 34.8997 1.18776 31.2181C1.15653 27.5365 2.58911 23.9932 5.17033 21.3679C7.75155 18.7425 11.27 17.25 14.9516 17.2188C17.8165 17.1913 20.6182 18.061 22.9641 19.7059V16.7067C22.8891 8.32158 36.8505 1.35962 54.1448 1.21416C70.9277 1.0747 84.68 7.51254 85.5617 15.5542L85.3556 17.3328C82.7664 14.9341 79.971 12.768 77.0019 10.8597C74.9983 9.52624 72.8088 8.49613 70.5041 7.80272C69.6181 7.56023 68.7126 7.39515 67.798 7.30935L54.1785 5.47156ZM22.4167 31.031C22.4027 29.5792 21.9587 28.1642 21.1408 26.9647C20.3229 25.7651 19.1678 24.835 17.8215 24.2917C16.4752 23.7484 14.998 23.6163 13.5766 23.9122C12.1553 24.2082 10.8535 24.9187 9.83587 25.9542C8.81821 26.9897 8.13029 28.3035 7.85907 29.7298C7.58785 31.1561 7.74549 32.6308 8.31205 33.9675C8.87861 35.3042 9.82868 36.443 11.0422 37.24C12.2557 38.0369 13.6783 38.4563 15.1301 38.4451C17.0788 38.4273 18.9406 37.6361 20.306 36.2455C21.6714 34.855 22.4285 32.979 22.4107 31.0303L22.4167 31.031Z" fill="white"/>
<path d="M64.265 26.0365C63.6742 26.1468 63.0571 26.257 62.4138 26.341C59.7535 26.7516 57.0668 26.9666 54.3751 26.9843C49.3086 27.0794 44.2565 26.4145 39.3872 25.0115C38.267 19.8716 42.115 15.7792 50.7648 11.1484C59.0689 6.70275 70.8146 8.79546 76.9983 11.5233C79.8055 13.2883 82.6968 14.8974 85.3496 17.3298C86.4743 18.327 87.5511 19.349 88.5596 20.3837C93.8082 25.7171 95.3078 29.5996 93.4596 31.2769C91.0422 33.4746 88.9967 34.3939 85.759 31.4704C83.2209 29.1587 80.8793 26.8358 79.4284 27.6036C77.2255 28.7673 79.4577 31.4554 77.997 32.9828C75.9658 35.1182 73.28 32.0185 70.9571 29.2899C68.7759 26.7361 67.5185 25.6594 64.265 26.0365Z" fill="#AA755E"/>
<path d="M67.822 7.04691L67.792 7.30859C62.2727 6.60977 56.7106 8.25485 51.9853 10.9714C45.348 14.7512 38.518 19.1166 39.3885 25.0115C33.1246 23.1235 29.0509 20.0058 29.0179 16.4427C28.9752 10.5073 40.2396 5.58103 54.18 5.47156C58.7771 5.38892 63.3647 5.91869 67.822 7.04691Z" fill="#E7DEDC"/>
<path d="M85.7561 31.4726L85.8378 40.4478V40.6045C85.8445 41.0897 85.8258 41.5741 85.7936 42.0449C85.586 45.908 84.508 49.6741 82.6399 53.0618C79.6616 58.3396 75.1477 62.5862 69.6982 65.2372C67.0555 66.5661 64.2449 67.5306 61.3431 68.1045L61.3303 68.0647C66.0099 64.7446 65.7542 45.9027 62.4866 26.7609L62.4116 26.341C63.0549 26.257 63.672 26.1468 64.2628 26.0365C67.5162 25.6616 68.7737 26.7361 70.9549 29.2922C73.2793 32.0208 75.9636 35.1205 77.9948 32.985C79.4555 31.4576 77.2233 28.7696 79.4262 27.6059C80.8823 26.8381 83.221 29.161 85.7561 31.4726Z" fill="#E7DEDC"/>
<path d="M22.9573 17.9199C22.6384 17.9197 22.3325 17.7935 22.1062 17.5688C21.88 17.3441 21.7517 17.0391 21.7493 16.7202C21.6743 7.5073 35.8989 0.164426 54.141 0.00321781C72.0741 -0.175986 86.7306 7.15264 86.8116 16.292C86.813 16.4509 86.783 16.6084 86.7235 16.7556C86.6639 16.9029 86.5759 17.0369 86.4645 17.1501C86.353 17.2632 86.2203 17.3533 86.0741 17.4152C85.9278 17.477 85.7707 17.5094 85.6119 17.5105H85.6007C85.2817 17.5105 84.9757 17.3844 84.7494 17.1596C84.5231 16.9349 84.3949 16.6297 84.3927 16.3108C84.326 8.72048 70.7845 2.41385 54.7003 2.41385C54.5204 2.41385 54.3419 2.41385 54.1605 2.41385C37.8364 2.55782 24.1007 9.09764 24.1682 16.6939C24.1695 16.8527 24.1395 17.0102 24.0799 17.1574C24.0203 17.3046 23.9322 17.4386 23.8208 17.5517C23.7094 17.6649 23.5768 17.755 23.4305 17.8169C23.2843 17.8787 23.1273 17.9112 22.9685 17.9124L22.9573 17.9199Z" fill="#560000"/>
<path d="M53.8418 28.1862C47.137 28.1862 40.8267 27.0953 36.0219 25.0993C30.7582 22.9128 27.8437 19.8431 27.8145 16.454C27.8132 16.2952 27.8432 16.1378 27.9028 15.9906C27.9625 15.8435 28.0505 15.7095 28.1619 15.5965C28.2733 15.4834 28.406 15.3933 28.5522 15.3315C28.6984 15.2697 28.8554 15.2374 29.0142 15.2363H29.0239C29.3429 15.2363 29.649 15.3624 29.8754 15.5871C30.1019 15.8119 30.2303 16.117 30.2326 16.436C30.2521 18.7604 32.701 21.1058 36.9501 22.8701C41.59 24.7979 47.7751 25.8348 54.3637 25.7704C57.612 25.7532 60.8524 25.4455 64.0459 24.8511C64.2018 24.8215 64.362 24.823 64.5173 24.8554C64.6726 24.8877 64.82 24.9503 64.9511 25.0397C65.0822 25.129 65.1945 25.2433 65.2814 25.376C65.3683 25.5087 65.4283 25.6572 65.4578 25.8131C65.4874 25.969 65.4859 26.1291 65.4536 26.2844C65.4212 26.4398 65.3586 26.5872 65.2692 26.7183C65.1799 26.8494 65.0656 26.9616 64.9329 27.0485C64.8002 27.1355 64.6517 27.1954 64.4958 27.225C61.1606 27.8461 57.7765 28.1676 54.3839 28.1855C54.2017 28.1855 54.021 28.1862 53.8418 28.1862Z" fill="#560000"/>
<path d="M54.432 70C37.9204 70 24.205 58.9381 22.2262 44.3663C20.0669 45.5412 17.6512 46.1652 15.193 46.1831H15.0626C11.0767 46.1773 7.25511 44.5941 4.4328 41.7796C1.61049 38.965 0.0168751 35.1477 0.00013325 31.1619C-0.0166086 27.176 1.54488 23.3455 4.34345 20.5073C7.14201 17.6691 10.9502 16.0539 14.9359 16.0146C17.3005 15.9892 19.6373 16.5269 21.7531 17.5832V16.7157C21.7521 16.3953 21.8784 16.0875 22.1042 15.8602C22.33 15.6328 22.6369 15.5044 22.9573 15.5033H22.961C23.2801 15.5032 23.5861 15.6294 23.8125 15.8541C24.039 16.0788 24.1674 16.3839 24.1697 16.7029L24.1802 19.6939C24.1811 19.9148 24.1214 20.1316 24.0077 20.3209C23.8939 20.5102 23.7305 20.6647 23.535 20.7676C23.3396 20.8705 23.1198 20.9178 22.8993 20.9045C22.6789 20.8912 22.4663 20.8176 22.2847 20.6919C20.3742 19.362 18.1342 18.584 15.8106 18.4433C13.487 18.3027 11.1696 18.8048 9.11263 19.8947C7.05564 20.9845 5.33859 22.6198 4.14991 24.6213C2.96123 26.6228 2.34684 28.913 2.37417 31.2407C2.4015 33.5684 3.0695 35.8436 4.30485 37.8166C5.54019 39.7896 7.29516 41.3842 9.37717 42.4254C11.4592 43.4667 13.7878 43.9142 16.1074 43.7191C18.4271 43.5239 20.6481 42.6936 22.5269 41.3191C22.7018 41.191 22.908 41.1123 23.1238 41.0913C23.3396 41.0703 23.5571 41.1078 23.7535 41.1998C23.9498 41.2918 24.1177 41.435 24.2397 41.6143C24.3616 41.7936 24.433 42.0025 24.4464 42.2189C25.3094 56.487 38.4558 67.5774 54.4387 67.5774H54.7341C62.5855 67.5934 70.1662 64.7096 76.0219 59.4795C78.7281 57.1027 80.8959 54.1759 82.3805 50.8945C83.8652 47.613 84.6325 44.0525 84.6312 40.4508L84.5435 32.2982C84.5403 31.9779 84.6644 31.6695 84.8885 31.4408C85.1126 31.212 85.4184 31.0816 85.7387 31.0782H85.7522C86.0702 31.0784 86.3752 31.2039 86.6014 31.4275C86.8275 31.6511 86.9564 31.9547 86.9601 32.2727L87.0471 40.4276C87.0537 44.3704 86.2185 48.2692 84.5972 51.8633C82.976 55.4574 80.6061 58.6639 77.646 61.2685C71.3513 66.9008 63.1981 70.0098 54.7514 69.9985C54.6389 70 54.5369 70 54.432 70Z" fill="#560000"/>
<path d="M15.0612 39.6538C13.3723 39.6527 11.7214 39.1518 10.3167 38.2141C8.91191 37.2764 7.81609 35.944 7.16726 34.3846C6.51844 32.8252 6.34565 31.1087 6.67065 29.4513C6.99564 27.7939 7.80389 26.2698 8.99357 25.071C10.1832 23.8721 11.7011 23.0522 13.356 22.7145C15.0108 22.3768 16.7286 22.5364 18.2929 23.1732C19.8572 23.81 21.198 24.8956 22.1465 26.2931C23.0949 27.6906 23.6085 29.3376 23.6226 31.0265C23.6374 33.2944 22.7528 35.4757 21.1626 37.0927C19.5725 38.7097 17.4063 39.6306 15.1385 39.6538H15.0612ZM15.0688 24.9576H15.011C13.3827 24.9642 11.8238 25.6174 10.6771 26.7735C9.53048 27.9296 8.89005 29.4938 8.89671 31.1221C8.90337 32.7504 9.55659 34.3093 10.7127 35.456C11.8687 36.6026 13.433 37.2431 15.0612 37.2364H15.1167C16.7444 37.22 18.2991 36.5592 19.4406 35.3988C20.582 34.2384 21.2171 32.6729 21.2067 31.0453C21.1936 29.426 20.5412 27.8776 19.3915 26.7373C18.2418 25.597 16.688 24.9573 15.0688 24.9576Z" fill="#560000"/>
<path d="M90.1709 34.9818C87.5631 34.9818 85.1584 32.7098 83.3709 31.022C82.2544 29.9723 80.5681 28.3737 80.0043 28.6736C79.6159 28.8783 79.5386 29.053 79.6691 30.3022C79.7763 31.3227 79.9218 32.7203 78.8653 33.8225C78.5549 34.1699 78.1731 34.4462 77.746 34.6324C77.319 34.8186 76.8567 34.9104 76.3909 34.9015C74.11 34.84 72.036 32.4189 70.0311 30.078C67.8611 27.5377 67.0056 26.7624 63.5078 27.345C63.1917 27.3976 62.8676 27.3224 62.6069 27.1361C62.3462 26.9498 62.1702 26.6675 62.1176 26.3515C62.065 26.0354 62.1401 25.7113 62.3264 25.4506C62.5128 25.1899 62.795 25.0139 63.1111 24.9613C67.6294 24.2115 69.3225 25.5304 71.8651 28.5072C73.2148 30.0818 75.246 32.4541 76.4547 32.4864C76.5829 32.4848 76.7091 32.4538 76.8234 32.3958C76.9378 32.3378 77.0374 32.2544 77.1145 32.152C77.3702 31.8858 77.3537 31.4389 77.2645 30.5534C77.1475 29.4287 76.9511 27.5542 78.8736 26.5374C80.9625 25.4314 83.0305 27.3794 85.0287 29.266C88.4726 32.5194 90.2376 33.5436 92.2516 31.4487C93.9012 29.7308 92.1181 25.7239 87.7025 21.2415C82.6533 16.1173 77.7781 12.3068 70.3985 10.3693C66.1468 9.28177 61.7027 9.18072 57.406 10.0739C53.1093 10.9671 49.0736 12.8309 45.6076 15.5227C41.944 18.441 39.7216 21.9583 39.8078 24.7019C39.8178 25.0222 39.7001 25.3333 39.4807 25.5667C39.2612 25.8002 38.958 25.937 38.6378 25.9469C38.3175 25.9569 38.0064 25.8392 37.7729 25.6198C37.5394 25.4003 37.4026 25.0971 37.3927 24.7769C37.2817 21.234 39.7921 17.0673 44.1027 13.6325C47.8646 10.7094 52.245 8.68514 56.9092 7.7145C61.5733 6.74385 66.3976 6.85251 71.0133 8.03216C79.3902 10.2351 84.8098 14.8689 89.4234 19.5485C95.0079 25.2185 96.7167 30.2939 93.9934 33.1252C93.5211 33.6843 92.937 34.1383 92.2787 34.458C91.6203 34.7778 90.9023 34.9562 90.1709 34.9818Z" fill="#560000"/>
</svg>
