<svg width="145" height="54" viewBox="0 0 145 56" fill="none" xmlns="http://www.w3.org/2000/svg">
<path d="M137.545 23.8857C139.281 16.2043 145.184 4.65222 143.11 1.65946C141.853 -0.13619 138.822 -0.515272 138.722 0.721733C138.164 7.72478 133.457 19.2569 130.724 19.3167C127.095 19.3965 132.46 9.99928 132.958 4.9914C133.158 3.01618 131.742 1.97869 130.485 1.57966C129.548 1.28038 128.83 1.43999 128.75 1.99864C128.271 5.66976 126.596 9.20121 125.539 12.7127C123.146 17.4413 119.476 21.691 118.12 20.9727C116.045 19.8754 121.969 8.70241 122.667 6.24835C123.285 4.03372 122.168 3.03613 119.915 3.7943C118.399 4.29309 115.268 6.08874 114.011 6.34811C114.749 4.83178 115.168 3.01618 114.191 2.15826C112.914 1.06091 110.84 1.69937 109.823 3.33541C108.845 4.91159 108.107 7.84449 109.643 9.32092C110.002 9.6601 110.381 9.89952 110.76 10.0591C108.347 19.7756 102.184 26.3796 98.5541 26.2799C95.9015 26.22 95.6223 24.3046 95.5226 22.1299C99.0727 20.7532 103.022 18.7182 105.375 15.6057C106.332 14.3088 106.911 12.5132 106.671 10.8971C106.372 8.76227 104.517 7.70483 102.683 7.70483C99.7907 7.70483 96.6594 9.58029 93.9868 13.3911C92.7702 15.1269 91.6533 17.3415 90.9752 19.616C86.767 26.4195 80.644 27.1976 80.7039 27.1777C84.254 25.6813 87.2057 21.3318 89.6788 16.5434C93.0694 9.95937 93.8672 2.33782 90.4367 0.56212C84.7925 -2.37078 78.2906 7.90435 74.7205 19.4364C70.1932 29.6318 62.1556 29.8911 62.2154 29.8512C65.7655 28.3548 69.4951 23.6462 71.9682 18.8379C75.3588 12.2538 76.1565 4.63227 72.7261 2.85657C67.2414 0.0234237 60.9589 9.60024 57.329 20.7333C57.2891 20.7532 57.2492 20.7732 57.2293 20.8131C57.1695 21.0924 57.1096 21.3518 57.0298 21.6311C56.7905 22.4092 56.5512 23.2073 56.3318 23.9854C53.5795 32.3252 48.1546 37.8119 44.8438 37.7321C42.1912 37.6723 41.912 35.7569 41.8123 33.5822C45.3624 32.2055 49.3114 30.1704 51.6648 27.058C52.6221 25.7611 53.2005 23.9655 52.9612 22.3494C52.662 20.2145 50.8072 19.1571 48.9723 19.1571C46.0804 19.1571 42.9491 21.0326 40.2765 24.8433C37.7237 28.4546 35.6295 34.1807 36.9658 38.2708C37.963 41.3035 39.9774 42.6203 43.0488 42.4806C46.9978 42.3011 50.2487 39.1687 52.5822 36.2358C53.2205 35.4377 53.8387 34.5598 54.3972 33.662C53.3401 42.1614 54.3174 49.0248 58.047 49.4039C61.5971 49.783 69.0962 40.9643 63.3323 33.0036C63.3323 33.0036 68.5178 31.8065 72.8059 26.8984C70.7915 37.3331 71.3699 46.6705 75.7377 47.1294C79.2878 47.5085 86.6473 38.4504 80.8634 30.5096C80.8634 30.5096 85.9094 29.4921 90.2174 24.6837C90.2572 25.4419 90.3769 26.1602 90.5963 26.8385C91.5935 29.8712 93.6079 31.188 96.6793 31.0483C100.628 30.8688 103.879 27.7363 106.213 24.8034C110.222 19.7557 112.874 12.4334 113.393 9.91947C113.413 9.91947 115.088 9.46058 115.746 9.28101C116.384 9.10145 116.544 9.40072 116.384 9.85961C116.225 10.3385 114.629 13.5706 112.755 18.2593C111.159 22.2696 111.598 26.1203 114.849 26.7587C118.179 27.4171 122.089 22.7484 124.781 18.6783C125.18 20.833 126.337 22.8881 128.152 23.2273C131.183 23.7859 133.277 20.853 133.277 20.853C132.898 22.0701 132.46 23.5664 132.4 23.8258C124.163 24.5441 119.875 30.0108 119.117 34.8591C118.299 40.0066 120.952 43.8972 124.442 44.2364C129.647 44.7352 133.596 39.6675 136.668 26.7388C138.124 26.9582 139.42 27.3772 140.118 28.9733C140.856 30.7091 140.497 32.5048 139.4 33.9214C139.4 33.9214 139.4 33.9413 139.4 33.9613C139.281 34.0012 139.281 34.1009 139.62 34.3204C142.851 36.4752 145.603 33.0834 144.885 29.3125C144.247 25.7412 140.557 24.0652 137.545 23.8857ZM102.443 10.957C103.58 11.9545 100.728 17.0821 96.2804 18.4588C97.0782 16.2242 100.888 9.60024 102.443 10.957ZM48.7729 22.3693C49.9097 23.3669 47.0576 28.4945 42.61 29.8712C43.4078 27.6366 47.2172 21.0126 48.7729 22.3693ZM58.6453 46.6905C56.611 46.2715 59.3035 31.9262 59.3035 31.9262C63.4719 35.298 59.9417 46.9498 58.6453 46.6905ZM60.1013 28.3947C61.8963 19.0374 68.0591 4.89164 70.1932 5.6498C72.6064 6.48778 66.3838 23.746 60.1013 28.3947ZM76.336 44.396C74.3017 43.977 76.9942 29.6318 76.9942 29.6318C81.1825 33.0036 77.6324 44.6554 76.336 44.396ZM77.8119 26.1203C79.6069 16.7629 85.7697 2.61715 87.9038 3.37531C90.3171 4.21328 84.0745 21.4516 77.8119 26.1203ZM124.641 41.6227C123.185 41.5429 122.388 39.1886 122.767 36.1161C123.166 32.9637 126.377 27.2176 131.941 26.5193C131.163 29.2327 128.77 41.8422 124.641 41.6227Z" fill="#C3AA9A"/>
<path d="M40.7353 10.5586C42.5901 9.76052 44.445 8.9824 46.3596 8.30404C48.6532 7.50597 56.4714 4.67283 59.4232 7.36631C59.5628 8.02472 60.4803 8.76293 60.7196 8.00477C61.5573 5.29134 58.9445 1.9195 54.8759 1.75988C51.266 1.62022 46.8183 2.69761 42.63 4.05433C41.2937 3.49568 39.5785 3.35602 38.0827 4.51322C37.265 5.15167 36.6068 5.73027 36.0484 6.42858C34.3531 7.08699 32.8772 7.68554 31.7603 8.10453C24.2812 10.9576 16.5627 12.2545 15.6851 9.54105C15.4458 8.78288 14.5084 8.74298 14.0497 9.54105C13.4713 10.5586 12.0951 14.2097 15.3461 16.4044C19.2352 19.058 28.8085 15.4468 32.8373 13.9105C32.8772 13.8905 32.8971 13.8905 32.937 13.8706C32.0395 17.0628 30.9426 21.4921 29.2673 27.9764C26.475 38.6905 23.5432 53.5944 13.4912 53.2153C8.50514 53.0358 4.5362 48.5666 4.75559 42.7207C4.93509 37.7328 8.20597 32.5853 13.6907 30.9492C13.7705 30.9293 14.0098 30.8495 13.9699 30.4504C13.8901 29.6324 12.6137 28.0163 10.7589 27.8168C10.4597 27.7769 10.1805 27.7969 9.8813 27.8368C5.6132 28.5151 0.288037 34.3011 0.00881536 41.7231C-0.250462 48.8659 5.23425 55.6893 13.212 55.9886C19.2153 56.2081 25.2784 53.4547 29.2473 45.6137C31.7005 40.7455 33.3559 33.4033 34.6124 28.575C35.4101 25.5822 36.9658 16.3446 40.7353 10.5586Z" fill="#C3AA9A"/>
</svg>
