<svg width="186" height="26" viewBox="0 0 186 26" fill="none" xmlns="http://www.w3.org/2000/svg">
<path fill-rule="evenodd" clip-rule="evenodd" d="M48.9847 19.9878C48.9847 20.3715 48.8563 20.5523 48.4706 20.5523H46.7781C46.4997 20.5523 46.3923 20.4847 46.2855 20.2817L42.1506 12.8082C41.5717 11.7922 41.3149 11.0474 41.2933 10.9798V19.9878C41.2933 20.3715 41.1649 20.5523 40.7792 20.5523H39.0867C38.7009 20.5523 38.5725 20.3715 38.5725 19.9878V5.76395C38.5725 5.38018 38.7009 5.19995 39.0867 5.19995H40.7792C41.0149 5.19995 41.1433 5.26761 41.2291 5.42566L45.5356 13.2147C45.8997 13.8697 46.2639 14.7953 46.2639 14.7953V5.76395C46.2639 5.38018 46.3923 5.19995 46.7781 5.19995H48.4706C48.8563 5.19995 48.9847 5.38018 48.9847 5.76395V19.9878Z" fill="#C3AA9A"/>
<path fill-rule="evenodd" clip-rule="evenodd" d="M58.7448 17.4718V16.1809H56.3294C55.4883 16.1809 55.2945 16.6114 55.2945 17.1998V17.5624C55.2945 18.2415 55.7256 18.4457 56.3729 18.4457C57.3644 18.4457 58.2485 17.8567 58.7448 17.4718ZM52.8362 12.4228C52.8362 10.4072 54.1085 9.16187 57.1923 9.16187C60.3402 9.16187 61.5266 10.4072 61.5266 12.4228V20.0302C61.5266 20.4379 61.3757 20.6192 61.0086 20.6192H59.3915C59.0038 20.6192 58.9175 20.4379 58.874 20.0302L58.8311 19.5547C58.2056 20.0981 57.1494 20.8 55.6398 20.8C53.5264 20.8 52.5343 19.4646 52.5343 17.9701V16.9512C52.5343 15.4339 53.6339 14.098 55.769 14.098H58.7448V12.6491C58.7448 11.8338 58.3782 11.381 57.1271 11.381C55.8983 11.381 55.4671 11.7431 55.4671 12.5585V12.717C55.4671 13.1241 55.3162 13.2826 54.9496 13.2826H53.3537C52.9655 13.2826 52.8362 13.1241 52.8362 12.717V12.4228Z" fill="#C3AA9A"/>
<path fill-rule="evenodd" clip-rule="evenodd" d="M73.5954 12.4901V12.8749C73.5954 13.2826 73.4422 13.4183 73.0703 13.4183H71.3855C70.9915 13.4183 70.8389 13.2826 70.8389 12.8749V12.7164C70.8389 11.8788 70.4009 11.5162 69.154 11.5162C67.9066 11.5162 67.4692 11.8788 67.4692 12.7164V17.222C67.4692 18.0602 67.9066 18.4451 69.154 18.4451C70.4009 18.4451 70.8389 18.0602 70.8389 17.222V16.8828C70.8389 16.4751 70.9915 16.3166 71.3855 16.3166H73.0703C73.4422 16.3166 73.5954 16.4751 73.5954 16.8828V17.449C73.5954 19.4868 72.283 20.8 69.0885 20.8C65.8719 20.8 64.603 19.4868 64.603 17.449V12.4901C64.603 10.475 65.894 9.16187 69.11 9.16187C72.3045 9.16187 73.5954 10.475 73.5954 12.4901Z" fill="#C3AA9A"/>
<path fill-rule="evenodd" clip-rule="evenodd" d="M79.5354 10.2592C80.169 9.76022 81.2843 9.08025 82.9671 9.08025C84.9786 9.08025 86.1374 10.35 86.1374 12.1181V19.9626C86.1374 20.3708 85.9838 20.5523 85.5907 20.5523H83.8198C83.4262 20.5523 83.2512 20.3708 83.2512 19.9626V12.866C83.2512 12.0502 83.0112 11.6648 82.0709 11.6648C80.9782 11.6648 79.9939 12.3225 79.5354 12.685V19.9626C79.5354 20.3708 79.4044 20.5523 79.0322 20.5523H77.2184C76.8248 20.5523 76.6718 20.3708 76.6718 19.9626V5.2939C76.6718 4.88569 76.8248 4.70471 77.2184 4.70471H79.0322C79.4044 4.70471 79.5354 4.88569 79.5354 5.2939V10.2592Z" fill="#C3AA9A"/>
<path fill-rule="evenodd" clip-rule="evenodd" d="M95.6442 12.7392C95.6442 11.901 95.025 11.5162 93.828 11.5162C92.6315 11.5162 92.0123 11.901 92.0123 12.7392V17.1998C92.0123 18.0602 92.6315 18.4451 93.828 18.4451C95.025 18.4451 95.6442 18.0602 95.6442 17.1998V12.7392ZM89.2137 12.4901C89.2137 10.475 90.6878 9.16187 93.828 9.16187C96.9687 9.16187 98.4427 10.475 98.4427 12.4901V17.449C98.4427 19.4863 96.9687 20.8 93.828 20.8C90.6878 20.8 89.2137 19.4863 89.2137 17.449V12.4901Z" fill="#C3AA9A"/>
<path fill-rule="evenodd" clip-rule="evenodd" d="M115.943 9.68411L115.985 10.5463C116.582 10.0018 117.822 9.16187 119.635 9.16187C121.619 9.16187 122.58 10.3418 122.58 11.9531V20.2124C122.58 20.4392 122.494 20.5523 122.281 20.5523H121.427C121.214 20.5523 121.107 20.4392 121.107 20.2124V12.293C121.107 11.2725 120.594 10.5686 119.229 10.5686C117.651 10.5686 116.497 11.4314 116.007 11.8394V20.2124C116.007 20.4392 115.922 20.5523 115.708 20.5523H114.855C114.619 20.5523 114.534 20.4392 114.534 20.2124V9.68411C114.534 9.45727 114.619 9.34356 114.855 9.34356H115.623C115.858 9.34356 115.922 9.45727 115.943 9.68411Z" fill="#C3AA9A"/>
<path fill-rule="evenodd" clip-rule="evenodd" d="M132.697 18.1986V15.5288H129.24C128.064 15.5288 127.587 16.1678 127.587 17.1717V17.9021C127.587 18.906 128.173 19.4766 129.478 19.4766C131.044 19.4766 132.197 18.6095 132.697 18.1986ZM126.347 12.0603C126.347 10.3485 127.326 9.16187 130.261 9.16187C133.241 9.16187 134.176 10.3485 134.176 12.0603V20.2753C134.176 20.5035 134.088 20.6172 133.871 20.6172H133.088C132.848 20.6172 132.784 20.5035 132.762 20.2753L132.719 19.4536C132.088 19.9782 130.87 20.8 129.131 20.8C127.108 20.8 126.13 19.5904 126.13 18.1072V16.966C126.13 15.4829 127.065 14.2733 128.956 14.2733H132.697V12.2201C132.697 11.1932 132.175 10.4628 130.239 10.4628C128.304 10.4628 127.761 11.1472 127.761 12.1741V12.4482C127.761 12.6993 127.674 12.8131 127.435 12.8131H126.652C126.434 12.8131 126.347 12.6993 126.347 12.4482V12.0603Z" fill="#C3AA9A"/>
<path fill-rule="evenodd" clip-rule="evenodd" d="M139.145 20.2121C139.145 20.4387 139.063 20.5523 138.856 20.5523H138.033C137.808 20.5523 137.725 20.4387 137.725 20.2121V5.04497C137.725 4.81832 137.808 4.70471 138.033 4.70471H138.856C139.063 4.70471 139.145 4.81832 139.145 5.04497V20.2121Z" fill="#C3AA9A"/>
<path fill-rule="evenodd" clip-rule="evenodd" d="M158.472 9.42277C158.69 9.42277 158.799 9.51335 158.799 9.73949V10.3729C158.799 10.5991 158.69 10.7124 158.472 10.7124H156.021V17.4757C156.021 18.5387 156.611 19.2177 158.559 19.2177H158.932C159.149 19.2177 159.26 19.3082 159.26 19.5572V20.2128C159.26 20.4618 159.149 20.5523 158.932 20.5523H158.361C155.364 20.5523 154.489 19.4666 154.489 17.6341V10.7124H153.177C152.957 10.7124 152.87 10.5991 152.87 10.3729V9.83006C152.87 9.60392 152.957 9.51335 153.177 9.49056L154.314 9.42277H154.489V7.02517C154.489 6.79903 154.598 6.68567 154.818 6.68567H155.714C155.934 6.68567 156.021 6.79903 156.021 7.02517V9.42277H158.472Z" fill="#C3AA9A"/>
<path fill-rule="evenodd" clip-rule="evenodd" d="M163.756 20.2121C163.756 20.4387 163.673 20.5523 163.468 20.5523H162.644C162.418 20.5523 162.336 20.4387 162.336 20.2121V9.69267C162.336 9.46602 162.418 9.35298 162.644 9.35298H163.468C163.673 9.35298 163.756 9.46602 163.756 9.69267V20.2121ZM163.756 7.1533C163.756 7.37995 163.673 7.49356 163.468 7.49356H162.644C162.418 7.49356 162.336 7.37995 162.336 7.1533V5.04497C162.336 4.81832 162.418 4.70471 162.644 4.70471H163.468C163.673 4.70471 163.756 4.81832 163.756 5.04497V7.1533Z" fill="#C3AA9A"/>
<path fill-rule="evenodd" clip-rule="evenodd" d="M175.115 12.1057V12.5396C175.115 12.7677 175.029 12.8815 174.793 12.8815H173.999C173.763 12.8815 173.677 12.7677 173.677 12.5396V12.1971C173.677 11.1478 173.141 10.4628 171.231 10.4628C169.322 10.4628 168.786 11.1478 168.786 12.1971V17.7423C168.786 18.8146 169.322 19.4996 171.231 19.4996C173.141 19.4996 173.677 18.8146 173.677 17.7423V17.2401C173.677 16.9896 173.763 16.8976 173.999 16.8976H174.793C175.029 16.8976 175.115 16.9896 175.115 17.2401V17.8561C175.115 19.6133 174.127 20.8 171.189 20.8C168.249 20.8 167.305 19.6133 167.305 17.8561V12.1057C167.305 10.3485 168.271 9.16187 171.21 9.16187C174.149 9.16187 175.115 10.3485 175.115 12.1057Z" fill="#C3AA9A"/>
<path fill-rule="evenodd" clip-rule="evenodd" d="M184.472 11.7632C184.472 10.8737 183.698 10.3485 182.085 10.3485C180.493 10.3485 179.74 10.8737 179.74 11.7632V12.3568C179.74 13.0642 180.364 13.4521 180.838 13.6118L184.15 14.7525C185.226 15.118 186 15.8478 186 16.9206V18.221C186 19.5904 184.839 20.8 182.085 20.8C179.31 20.8 178.191 19.5904 178.191 18.221V17.605C178.191 17.3998 178.277 17.2855 178.493 17.2855H179.289C179.503 17.2855 179.568 17.3998 179.568 17.605V18.1526C179.568 19.0657 180.428 19.5904 182.085 19.5904C183.72 19.5904 184.624 19.0657 184.624 18.1526V17.3085C184.624 16.6235 184.086 16.2816 183.354 16.0305L180.042 14.8668C179.289 14.5927 178.385 13.7946 178.385 12.6534V11.7632C178.385 10.3945 179.354 9.16187 182.107 9.16187C184.839 9.16187 185.849 10.3945 185.849 11.7632V12.4252C185.849 12.6304 185.763 12.7217 185.549 12.7217H184.753C184.559 12.7217 184.472 12.6304 184.472 12.4252V11.7632Z" fill="#C3AA9A"/>
<path fill-rule="evenodd" clip-rule="evenodd" d="M31.9612 23.7804H31.9618L31.9552 23.7696C31.9509 23.7638 31.9476 23.757 31.9432 23.7507L27.1433 16.2219H27.1428C26.8968 15.8244 26.4703 15.5604 25.9844 15.5604C25.5709 15.5604 25.2017 15.7517 24.9487 16.053L24.9476 16.0518L21.2471 20.1467C21.1948 20.2286 21.1064 20.283 21.0055 20.283C20.8446 20.283 20.7148 20.1461 20.7148 19.9777C20.7148 19.8987 20.7448 19.8265 20.7928 19.7721H20.7923L31.9307 2.2734C31.9427 2.25621 31.9536 2.23846 31.9645 2.22127L31.9792 2.19893H31.9776C32.1069 1.97898 32.1827 1.72123 32.1827 1.444C32.1827 0.646678 31.5653 0 30.8034 0C30.5067 0 30.2324 0.0985196 30.0071 0.265774L30.0066 0.265201L10.8057 15.3576V15.357C10.7572 15.3954 10.6966 15.4189 10.6317 15.4189C10.4692 15.4189 10.3383 15.2814 10.3383 15.1113C10.3383 15.0116 10.3841 14.9234 10.455 14.8673L19.197 5.80922L19.1965 5.80864C19.4474 5.54688 19.6028 5.18545 19.6028 4.78565C19.6028 4.44827 19.4904 4.13782 19.3045 3.89152L19.305 3.89095L17.2871 0.734887C17.0493 0.300141 16.6021 0.00630067 16.0889 0.00630067C15.604 0.00630067 15.1781 0.26921 14.9321 0.666153L0.287964 23.6745C0.247605 23.7295 0.209973 23.7873 0.177796 23.848L0.17016 23.8595H0.171251C0.062174 24.0657 0 24.3028 0 24.5549C0 25.3522 0.617922 25.9989 1.37983 25.9989C1.68142 25.9989 1.95903 25.8963 2.18591 25.7251L2.19136 25.7319L15.8904 14.9589C16.2023 14.6703 16.6015 14.4841 17.0422 14.4492L17.0662 14.448C17.1 14.4457 17.1338 14.444 17.1682 14.4434C17.1791 14.4434 17.19 14.4423 17.2015 14.4423C18.2824 14.4423 19.1594 15.3605 19.1594 16.4929C19.1594 16.8829 19.0547 17.2461 18.8742 17.556C18.872 17.5594 18.8709 17.5623 18.8693 17.5657C18.8578 17.5852 18.8463 17.6041 18.8338 17.623C18.8125 17.6579 18.7902 17.6923 18.7667 17.7249C18.7667 17.7255 18.7662 17.7255 18.7662 17.7261L14.9948 23.6625C14.8094 23.9088 14.6987 24.2175 14.6987 24.5554C14.6987 25.3493 15.3101 25.9931 16.0676 25.9989V25.9994H16.072H16.078H16.084L30.805 26H30.8105C31.5691 26 32.1832 25.3568 32.1832 24.5623C32.1832 24.2742 32.1014 24.0056 31.9612 23.7804Z" fill="#C3AA9A"/>
<path fill-rule="evenodd" clip-rule="evenodd" d="M145.534 15.7314L143.559 9.74883C143.493 9.54503 143.405 9.40955 143.186 9.40955H142.286C142.068 9.40955 141.935 9.54503 142.002 9.74883L144.795 18.0762L145.534 15.7314Z" fill="#C3AA9A"/>
<path fill-rule="evenodd" clip-rule="evenodd" d="M150.436 9.40955H149.6C149.381 9.40955 149.294 9.54504 149.227 9.74885L144.371 24.9184C144.304 25.1217 144.413 25.2572 144.634 25.2572H145.315C145.535 25.2572 145.623 25.0989 145.689 24.9184L150.721 9.74885C150.788 9.54504 150.677 9.40955 150.436 9.40955Z" fill="#C3AA9A"/>
<path fill-rule="evenodd" clip-rule="evenodd" d="M107.107 5.53879C107.042 5.31309 106.935 5.19995 106.717 5.19995H105.786C105.549 5.19995 105.44 5.31309 105.375 5.53879L101.067 20.2135C101.002 20.4392 101.089 20.5523 101.305 20.5523H102.171C102.387 20.5523 102.474 20.4392 102.539 20.2135L105.677 9.57985C105.937 8.72195 106.197 7.05163 106.219 6.89301C106.262 7.14145 106.544 8.90274 106.761 9.62476L108.341 14.908H105.759L105.379 16.1946H108.666L109.856 20.2135C109.921 20.4392 110.03 20.5523 110.246 20.5523H111.178C111.415 20.5523 111.502 20.4392 111.437 20.2135L107.107 5.53879Z" fill="#C3AA9A"/>
<mask id="mask0" mask-type="alpha" maskUnits="userSpaceOnUse" x="0" y="0" width="33" height="26">
<path d="M30.0072 0.266341L30.0061 0.265768L10.8055 15.3578V15.3567C10.7575 15.3951 10.6965 15.4185 10.6316 15.4185C10.469 15.4185 10.3382 15.2811 10.3382 15.1115C10.3382 15.0113 10.3845 14.9231 10.4549 14.867L19.1967 5.80909L19.1962 5.80852C19.447 5.54676 19.6025 5.18534 19.6025 4.78554C19.6025 4.44817 19.4901 4.13773 19.3041 3.89144H19.3047L17.2868 0.735444C17.049 0.300134 16.6023 0.00630053 16.0886 0.00630053C15.6038 0.00630053 15.1778 0.269204 14.9319 0.666138L0.288504 23.6745C0.247601 23.7289 0.210515 23.7868 0.177793 23.8475L0.170703 23.859H0.171248C0.0627183 24.0652 0 24.3023 0 24.5543C0 25.3516 0.617911 25.9983 1.3798 25.9983C1.6814 25.9983 1.95899 25.8963 2.18641 25.7245L2.19132 25.7314L15.8906 14.9586C16.202 14.6705 16.6018 14.4843 17.0419 14.4488L17.0659 14.4477C17.1003 14.4454 17.1341 14.4437 17.1684 14.4431C17.1788 14.4431 17.1897 14.442 17.2012 14.442C18.2827 14.442 19.1596 15.3607 19.1596 16.4931C19.1596 16.882 19.0544 17.2457 18.8744 17.5561C18.8717 17.559 18.8706 17.5624 18.8689 17.5653C18.8575 17.5848 18.846 17.6037 18.8335 17.6232C18.8128 17.6575 18.7899 17.6919 18.7664 17.7245C18.7664 17.7251 18.7659 17.7251 18.7659 17.7257L14.994 23.6619C14.8091 23.9076 14.6984 24.2175 14.6984 24.5549C14.6984 25.3493 15.3098 25.9931 16.0679 25.9983V25.9989H16.0722H16.0777H16.0837L30.8045 26H30.8099C31.5686 26 32.1832 25.3568 32.1832 24.5623C32.1832 24.2742 32.1009 24.0056 31.9607 23.7799H31.9612L31.9547 23.769C31.9509 23.7633 31.9471 23.7564 31.9432 23.7501L27.1428 16.2221H27.1423C26.8963 15.8246 26.4698 15.5606 25.9839 15.5606C25.5711 15.5606 25.2013 15.7519 24.9488 16.0526L24.9477 16.052L21.2473 20.1462C21.1944 20.2281 21.1061 20.2826 21.0052 20.2826C20.8443 20.2826 20.7145 20.1457 20.7145 19.9778C20.7145 19.8982 20.7445 19.8261 20.7925 19.7722H20.7919L31.9307 2.27335C31.9421 2.25674 31.9531 2.23841 31.964 2.22122L31.9787 2.19889H31.9771C32.1063 1.97894 32.1827 1.72119 32.1827 1.44454C32.1827 0.646664 31.5647 0 30.8029 0C30.5062 0 30.2318 0.0985174 30.0072 0.266341Z" fill="white"/>
</mask>
<g mask="url(#mask0)">
</g>
</svg>
