<svg width="230" height="30" viewBox="0 0 226 28" fill="none" xmlns="http://www.w3.org/2000/svg">
<path fill-rule="evenodd" clip-rule="evenodd" d="M17.0401 27.4812C14.9272 24.1486 12.8329 20.8395 10.7576 17.5556C8.68135 14.2717 6.58701 10.9626 4.47461 7.62949L3.87799 6.33304L3.95231 7.59258V27.4812H0V0.555664H4.54892L15.9217 18.5926C16.0461 18.79 16.1643 18.9756 16.2758 19.1483C16.3878 19.3211 16.5055 19.5062 16.6298 19.704L17.115 21.1112L17.0401 19.704V0.555664H21.1421V27.4812H17.0401Z" fill="#C3AA9A"/>
<path fill-rule="evenodd" clip-rule="evenodd" d="M32.6641 13.9815C32.6641 15.4159 32.8504 16.7769 33.2231 18.0621C33.5962 19.3488 34.1304 20.4807 34.8266 21.4573C35.5223 22.4349 36.38 23.2079 37.3999 23.7764C38.4186 24.3454 39.5623 24.6294 40.8304 24.6294C41.973 24.6294 43.0424 24.3762 44.0369 23.8692C45.0309 23.3622 45.9011 22.6445 46.6469 21.7167C47.3926 20.7898 47.9763 19.6707 48.3995 18.3594C48.8217 17.0486 49.0333 15.5892 49.0333 13.9815C49.0333 12.4237 48.8341 10.9888 48.4367 9.67748C48.0388 8.36668 47.4793 7.2476 46.7589 6.31974C46.0373 5.3929 45.1744 4.66957 44.167 4.14976C43.1606 3.62995 42.0479 3.37005 40.8304 3.37005C39.5866 3.37005 38.4625 3.64277 37.4556 4.18667C36.4487 4.73109 35.5909 5.47287 34.8828 6.41252C34.1742 7.35218 33.6272 8.47126 33.2421 9.77027C32.8561 11.0688 32.6641 12.4729 32.6641 13.9815ZM27.7049 14C27.7049 11.9013 28.0342 9.99429 28.6932 8.27799C29.3513 6.5617 30.2715 5.09249 31.4523 3.87038C32.6326 2.64826 34.0251 1.69784 35.6286 1.01809C37.2316 0.339363 38.9657 0 40.8304 0C43.1167 0 45.0867 0.401391 46.7403 1.20366C48.3928 2.00644 49.7543 3.06811 50.8232 4.38865C51.892 5.7097 52.6811 7.21018 53.191 8.88854C53.7004 10.5679 53.9554 12.2719 53.9554 14C53.9554 15.9255 53.6442 17.7407 53.0233 19.4447C52.4019 21.1482 51.5189 22.6358 50.3757 23.9077C49.232 25.179 47.8525 26.1791 46.2371 26.9071C44.6206 27.635 42.8184 28 40.8304 28C38.8408 28 37.0391 27.6601 35.4232 26.9814C33.8073 26.3027 32.4272 25.3456 31.2846 24.1112C30.1409 22.8767 29.2578 21.4014 28.637 19.6851C28.0156 17.9693 27.7049 16.0741 27.7049 14Z" fill="#C3AA9A"/>
<path fill-rule="evenodd" clip-rule="evenodd" d="M78.3412 8.18565C78.3412 9.66716 77.9809 10.9575 77.2599 12.056C76.5389 13.1551 75.5821 14.0374 74.3889 14.7043L73.382 15.0744C74.426 15.6178 75.2152 16.3283 75.7498 17.2044C76.284 18.081 76.7315 19.0627 77.0922 20.1484C77.4525 21.2352 77.7879 22.4076 78.0991 23.6672C78.4098 24.9262 78.8635 26.1985 79.4601 27.4817H74.65C74.2026 26.4928 73.8351 25.4352 73.5502 24.3105C73.2638 23.1858 72.9655 22.0975 72.6548 21.0461C72.3441 19.9952 71.9653 19.0376 71.5178 18.1717C71.0703 17.3059 70.4484 16.6379 69.6531 16.1684C69.2805 16.2181 68.8826 16.2181 68.4599 16.1684C68.062 16.1684 67.6522 16.1438 67.2295 16.0945C66.8068 16.0448 66.3717 15.9582 65.9248 15.8346C66.0734 15.5132 66.2474 15.179 66.4466 14.833C66.6453 14.4869 66.8755 14.1717 67.1361 13.8866C67.3972 13.6026 67.6955 13.3679 68.0315 13.1818C68.367 12.9967 68.7453 12.8916 69.1685 12.8665C69.7151 12.8424 70.2559 12.6999 70.7906 12.44C71.3248 12.1811 71.7908 11.8469 72.1887 11.4393C72.5861 11.0313 72.9097 10.5489 73.1585 9.99217C73.4067 9.43545 73.5311 8.82388 73.5311 8.15592C73.5311 7.48847 73.3881 6.86357 73.1022 6.28276C72.8163 5.70195 72.4246 5.19444 71.9281 4.76178C71.4306 4.32911 70.8464 3.99539 70.1754 3.76009C69.504 3.52531 68.783 3.40791 68.013 3.40791C67.6641 3.40791 67.3601 3.41407 67.0989 3.42637C66.8383 3.43918 66.5772 3.45149 66.316 3.46328C66.0549 3.47609 65.7813 3.50019 65.4959 3.5371C65.2095 3.57452 64.8802 3.61758 64.5076 3.66679V27.4817H59.8095V0.888836C60.7039 0.741198 61.5059 0.611502 62.2145 0.500261C62.9226 0.38902 63.5941 0.296746 64.2279 0.222414C64.8616 0.148595 65.483 0.0993823 66.092 0.0742633C66.701 0.0501696 67.3415 0.0373535 68.013 0.0373535C69.4792 0.0373535 70.8463 0.23523 72.1144 0.629957C73.382 1.0252 74.4756 1.57423 75.3958 2.27807C76.315 2.98192 77.036 3.84006 77.5583 4.852C78.08 5.86496 78.3412 6.97584 78.3412 8.18565Z" fill="#C3AA9A"/>
<path fill-rule="evenodd" clip-rule="evenodd" d="M90.3854 3.92571H83.0026V0.555664H102.466V3.92571H95.0463V27.4812H90.3854V3.92571Z" fill="#C3AA9A"/>
<path fill-rule="evenodd" clip-rule="evenodd" d="M116.71 11.6665H124.205V0.555664H128.792V27.4812H124.205V15.037H113.168C113.292 14.6423 113.453 14.2471 113.653 13.8518C113.851 13.4571 114.094 13.0988 114.379 12.7779C114.665 12.4569 115.001 12.1914 115.387 11.9812C115.772 11.7716 116.213 11.6665 116.71 11.6665ZM107.09 27.4817H111.751V0.555664H107.09V27.4817Z" fill="#C3AA9A"/>
<path fill-rule="evenodd" clip-rule="evenodd" d="M149.262 27.9271C147.1 27.9271 145.148 27.581 143.408 26.8895C141.667 26.199 140.188 25.2357 138.971 24.0008C137.752 22.7664 136.814 21.3039 136.156 19.6122C135.496 17.921 135.168 16.0627 135.168 14.0378C135.168 12.0626 135.503 10.2233 136.174 8.51931C136.845 6.81583 137.796 5.34047 139.026 4.09324C140.257 2.84702 141.736 1.86533 143.464 1.14867C145.192 0.433037 147.124 0.074707 149.262 0.074707C150.306 0.074707 151.369 0.172619 152.45 0.367932C153.532 0.563758 154.656 0.881079 155.825 1.3204L154.632 4.33417C153.513 3.98866 152.556 3.75438 151.76 3.63033C150.964 3.50678 150.132 3.44527 149.262 3.44527C147.845 3.44527 146.578 3.71132 145.459 4.24292C144.34 4.77504 143.383 5.51682 142.588 6.46878C141.792 7.42176 141.183 8.54084 140.761 9.82652C140.337 11.1132 140.127 12.5107 140.127 14.0193C140.127 15.4547 140.337 16.8086 140.761 18.0825C141.183 19.3564 141.792 20.4754 142.588 21.4397C143.383 22.4045 144.34 23.1652 145.459 23.7219C146.578 24.2782 147.845 24.556 149.262 24.556C150.132 24.556 151.002 24.4514 151.872 24.2412C152.742 24.0321 153.649 23.6922 154.594 23.2232L155.825 26.2231C154.706 26.8157 153.593 27.2478 152.487 27.5195C151.381 27.7907 150.306 27.9271 149.262 27.9271Z" fill="#C3AA9A"/>
<path fill-rule="evenodd" clip-rule="evenodd" d="M170.889 28C169.248 28 167.775 27.759 166.47 27.2777C165.165 26.7963 164.058 26.0986 163.151 25.1851C162.244 24.2721 161.548 23.1546 161.063 21.8335C160.579 20.513 160.336 19.0125 160.336 17.3336V0.555664H164.923V17.8888C164.923 18.9259 165.071 19.8645 165.37 20.7037C165.668 21.5429 166.078 22.2534 166.601 22.8331C167.123 23.414 167.75 23.8579 168.483 24.167C169.216 24.4756 170.018 24.6294 170.889 24.6294C172.629 24.6294 174.052 24.0312 175.158 22.8331C176.264 21.6356 176.817 19.9875 176.817 17.8888V0.555664H181.404V17.3336C181.404 18.9382 181.155 20.4017 180.658 21.7223C180.16 23.0433 179.452 24.167 178.532 25.0923C177.613 26.0186 176.506 26.7348 175.214 27.2408C173.922 27.7462 172.48 28 170.889 28Z" fill="#C3AA9A"/>
<path fill-rule="evenodd" clip-rule="evenodd" d="M192.739 3.92571H185.356V0.555664H204.821V3.92571H197.4V27.4812H192.739V3.92571Z" fill="#C3AA9A"/>
<path fill-rule="evenodd" clip-rule="evenodd" d="M213.919 3.92571H206.536V0.555664H226V3.92571H218.579V27.4812H213.919V3.92571Z" fill="#C3AA9A"/>
</svg>
