<svg width="170" height="61" viewBox="0 0 170 61" fill="none" xmlns="http://www.w3.org/2000/svg">
<g clip-path="url(#clip0)">
<path d="M84.0538 21.6687C84.0538 19.6657 82.6691 18.7097 79.9919 18.7097C77.2686 18.7097 75.8838 19.6657 75.8838 21.6687V22.306C75.8838 23.7627 76.9455 24.2635 77.5917 24.5366L84.8847 27.0858C87.7465 28.0873 89.8236 29.9537 89.8236 33.0037V36.1903C89.8236 39.65 87.3772 42.9276 79.8534 42.9276C72.422 42.9276 69.8833 39.65 69.8833 36.1903V33.5955C69.8833 32.8672 70.1603 32.503 70.8988 32.503H74.4068C75.1453 32.503 75.4223 32.8217 75.4223 33.5955V35.462C75.4223 37.4649 76.9916 38.4209 79.8534 38.4209C82.6691 38.4209 84.2846 37.4649 84.2846 35.462V34.1418C84.2846 32.4575 82.6229 31.7746 80.7304 31.0918L74.2683 28.6791C72.2835 27.9508 70.4834 25.8567 70.4834 23.353V20.9403C70.4834 17.4806 72.6528 14.203 79.9919 14.203C87.2849 14.203 89.6389 17.4806 89.6389 20.9403V22.6246C89.6389 23.3075 89.362 23.6717 88.5773 23.6717H85.0693C84.3769 23.6717 84.1 23.353 84.1 22.6246V21.6687H84.0538Z" fill="#C3AA9A"/>
<path d="M148.906 14.5216C149.598 14.5216 149.967 14.7492 149.967 15.5231V18.1179C149.967 18.8462 149.644 19.1649 148.906 19.1649H138.243V25.8567H148.213C148.952 25.8567 149.275 26.0843 149.275 26.8582V29.4985C149.275 30.2268 148.998 30.5455 148.213 30.5455H138.243V41.5619C138.243 42.2903 138.013 42.6544 137.228 42.6544H133.581C132.843 42.6544 132.566 42.3358 132.566 41.5619V15.6141C132.566 14.8858 132.797 14.5216 133.581 14.5216H148.906Z" fill="#C3AA9A"/>
<path d="M160.491 38.1022C160.445 38.1022 159.799 38.1933 159.568 38.1933C157.814 38.1933 157.307 37.5104 157.307 36.0082V23.0799C157.307 22.3515 156.983 22.0328 156.245 22.0328H152.829C152.137 22.0328 151.814 22.306 151.814 23.0799V37.3739C151.814 40.606 154.029 42.8821 157.814 42.8821C158.737 42.8821 159.568 42.791 160.307 42.609C160.353 42.609 160.399 42.5634 160.491 42.5634C160.584 42.5634 160.768 38.0567 160.491 38.1022Z" fill="#C3AA9A"/>
<path d="M168.615 22.0328H165.153C164.415 22.0328 164.138 22.306 164.138 23.0799V36.4179L164.369 41.5619C164.461 42.2903 164.646 42.6089 165.43 42.6089H168.661C169.354 42.6089 169.677 42.3358 169.677 41.5619V23.0799C169.631 22.306 169.308 22.0328 168.615 22.0328Z" fill="#C3AA9A"/>
<path d="M129.473 22.0328H126.288C125.596 22.0328 125.365 22.397 125.181 23.0799L118.626 43.1097L116.595 49.847C116.364 50.5299 116.826 50.894 117.611 50.894H120.103C120.842 50.894 121.119 50.3933 121.257 49.847L130.489 23.0799C130.72 22.397 130.212 22.0328 129.473 22.0328Z" fill="#C3AA9A"/>
<path d="M101.502 38.0567C100.809 37.8747 100.486 38.2844 100.486 39.0127V41.4254C100.486 42.1538 100.948 42.3814 101.502 42.5179V38.0567Z" fill="#C3AA9A"/>
<path d="M160.399 38.1478C161.092 37.9657 161.415 38.3754 161.415 39.1038V41.4709C161.415 42.1993 160.953 42.4269 160.399 42.5635V38.1478Z" fill="#C3AA9A"/>
<path d="M119.411 29.9082C119.272 29.4985 117.149 23.0343 117.149 23.0343C116.918 22.397 116.734 21.9873 115.995 21.9873H112.533C111.841 21.9873 111.333 22.3515 111.564 23.0343L116.78 37.9201C116.78 37.9201 117.195 38.4209 117.334 37.9201C117.888 36.0537 119.226 31.7746 119.411 31.2283C119.595 30.5 119.549 30.3179 119.411 29.9082Z" fill="#C3AA9A"/>
<path d="M104.41 21.7142C100.994 21.7142 98.8706 23.171 97.7167 24.0814L97.6243 23.0799C97.5782 22.3515 97.3935 22.0329 96.6089 22.0329H93.3778C92.6393 22.0329 92.3162 22.306 92.3162 23.0799V49.8471C92.3162 50.5754 92.5931 50.8941 93.3778 50.8941H96.8397C97.532 50.8941 97.809 50.6209 97.809 49.8471V40.7426V28.315C98.686 27.6777 100.532 26.403 102.656 26.403C104.594 26.403 104.917 27.4956 104.917 28.5426V36.0083C104.917 37.1008 104.594 38.1933 102.656 38.1933C102.194 38.1933 101.779 38.1478 101.363 38.0568C101.086 38.0112 101.086 42.4269 101.363 42.4724C102.24 42.7001 103.209 42.8821 104.363 42.8821C108.518 42.8821 110.41 40.515 110.41 36.8732V27.7232C110.502 24.0359 108.564 21.7142 104.41 21.7142Z" fill="#C3AA9A"/>
<path d="M38.2188 3.27759C35.9571 2.6858 33.7415 2.32162 31.4797 2.23057L31.7105 4.82535C33.6492 4.91639 35.5416 5.23505 37.4803 5.7358C51.6969 9.6052 60.0977 24.0358 56.4512 38.0567C54.8357 43.7925 51.42 48.6179 46.9888 51.9865L41.9114 46.0231C41.8191 45.9321 41.8191 45.7955 41.8191 45.6589L43.8039 39.3768L32.9106 41.3798C32.8183 41.3798 32.6798 41.3798 32.5875 41.2888C32.4952 41.1977 32.449 41.1067 32.449 41.0156L32.4952 39.2403C32.4952 39.1037 32.5414 39.0127 32.6337 38.9671L41.5883 32.4574C41.1729 30.9552 38.9573 22.7156 36.3725 19.438C36.2802 19.347 36.2802 19.1649 36.3263 19.0739C36.3725 18.9828 36.511 18.8462 36.6494 18.8462L49.9429 18.2089L31.572 9.42311C31.4797 9.37759 31.3874 9.24102 31.3874 9.10445L30.5566 0.4552L9.27772 6.37311L10.7548 12.4276C10.8009 12.5642 10.7548 12.7007 10.6163 12.7918L3.6926 17.7992L3.50797 18.7097L12.7857 19.5746C12.9242 19.5746 13.0627 19.7112 13.1088 19.8477L18.0016 39.741C18.0016 39.7865 18.0016 39.8321 18.0016 39.8776L18.1401 40.3783L17.7246 40.1962C17.6785 40.1962 17.5862 40.1962 17.54 40.1962L6.18513 35.9627L7.10829 44.3388C3.87723 38.8306 2.5848 32.1388 4.0157 25.4925C4.10802 25.0828 4.20034 24.7186 4.29265 24.3089C4.61576 23.0798 5.40044 21.1679 6.09281 19.6656L3.32333 19.3925C2.76944 20.5761 2.30786 21.8507 1.93859 23.1253L1.84628 23.2164C1.66164 23.8082 1.52317 24.4 1.3847 24.9918C-2.07716 40.1052 7.10829 55.4462 22.4328 59.6343C38.1726 63.9134 54.5587 54.7634 58.8976 39.2403C63.2365 23.7171 53.9587 7.55669 38.2188 3.27759ZM23.4944 37.9201L39.6959 33.1403L30.6489 38.5119L23.4944 37.9201Z" fill="#C3AA9A"/>
<path d="M37.8034 56.6298L31.6182 44.6119L24.556 43.8835L34.8954 57.2671C35.8647 57.1306 36.8341 56.9029 37.8034 56.6298Z" fill="#C3AA9A"/>
</g>
<defs>
<clipPath id="clip0">
<rect width="170" height="61" fill="white"/>
</clipPath>
</defs>
</svg>
